<svg width="17" height="17" viewBox="0 0 17 17" fill="none" xmlns="http://www.w3.org/2000/svg">
<g clip-path="url(#clip0_235_183)">
<path d="M10.8007 2.67444L2.34863 11.1268L5.86999 14.6482L14.3224 6.19616L10.8007 2.67444Z" fill="#296068"/>
<path d="M16.8538 2.96056L14.0362 0.143005C13.8494 -0.0437622 13.5187 -0.0437622 13.3319 0.143005L11.5049 1.97014L15.0266 5.49186L16.8537 3.66483C16.9471 3.57143 16.9997 3.44499 16.9997 3.31271C16.9997 3.18043 16.9471 3.05396 16.8538 2.96056Z" fill="#296068"/>
<path d="M1.6447 11.8311L1.29231 12.1834C1.23298 12.2428 1.18922 12.3162 1.16584 12.397L0.0194722 16.3604C-0.0306313 16.535 0.0175132 16.7227 0.145943 16.8511C0.240771 16.946 0.36774 16.9971 0.498062 16.9971C0.544281 16.9971 0.590964 16.9908 0.636685 16.9776L4.60014 15.8312C4.68089 15.8079 4.75434 15.7641 4.81367 15.7048L5.16606 15.3524L1.6447 11.8311Z" fill="#296068"/>
</g>
<defs>
<clipPath id="clip0_235_183">
<rect width="17" height="17" fill="white"/>
</clipPath>
</defs>
</svg>
