<svg width="17" height="17" viewBox="0 0 17 17" fill="none" xmlns="http://www.w3.org/2000/svg">
<path d="M16.0377 2.18282L14.9145 1.07291C14.6105 0.768968 14.1084 0.768968 13.7912 1.07291L8.18814 6.67587L2.47946 0.967191C2.17539 0.663117 1.67322 0.663117 1.3562 0.967191L0.232938 2.09045C-0.0711355 2.39439 -0.0711355 2.89656 0.232938 3.21371L5.92853 8.90931L0.338657 14.5256C0.0347153 14.8296 0.0347153 15.3317 0.338657 15.6489L1.46192 16.7721C1.76586 17.0761 2.26802 17.0761 2.58518 16.7721L8.18814 11.169L13.7912 16.7721C14.0952 17.0761 14.5973 17.0761 14.9145 16.7721L16.0377 15.6489C16.3417 15.3449 16.3417 14.8428 16.0377 14.5256L10.4214 8.92252L16.0245 3.31956C16.3417 3.00214 16.3417 2.49998 16.0377 2.18282Z" fill="#FF0000"/>
</svg>
